<svg xmlns="http://www.w3.org/2000/svg" viewBox="0 0 202.65 44.38"><defs><style>.cls-1{fill:#adadad;}</style></defs><g id="圖層_2" data-name="圖層 2"><g id="header"><path class="cls-1" d="M58.45,35.16A9.24,9.24,0,0,1,67.67,26h9v2.49h-9a6.72,6.72,0,0,0-4.75,11.48,6.49,6.49,0,0,0,4.75,2h9v2.49h-9a9.24,9.24,0,0,1-9.22-9.22Z"/><path class="cls-1" d="M89.89,26a9.2,9.2,0,0,1,9.22,9.19v9.24h-2.5V35.14a6.74,6.74,0,0,0-6.72-6.72,6.38,6.38,0,0,0-4.06,1.38,6.85,6.85,0,0,0-2.39,3.53V44.38h-2.5V14.91h2.5v13.7A8.78,8.78,0,0,1,89.89,26Z"/><path class="cls-1" d="M105.92,28.85a8.87,8.87,0,0,1,6.72-2.9v2.47a6.74,6.74,0,0,0-6.72,6.72v9.24h-2.49V26h2.49Z"/><path class="cls-1" d="M126.18,26a9.31,9.31,0,0,1,6.38,2.82,9.2,9.2,0,0,1,0,12.76,9.21,9.21,0,0,1-6.38,2.81v0h-.08l-.06,0-.05,0h-.08v0a9.21,9.21,0,0,1-6.38-2.81,9.2,9.2,0,0,1,0-12.76A9.31,9.31,0,0,1,125.91,26v0a.11.11,0,0,1,.08,0h.11a.11.11,0,0,1,.08,0ZM126,41.89a6.82,6.82,0,0,0,4.7-2.06,6.71,6.71,0,0,0,0-9.34,6.4,6.4,0,0,0-9.39,0,6.71,6.71,0,0,0,0,9.34A6.8,6.8,0,0,0,126,41.89Z"/><path class="cls-1" d="M148.4,26a9.22,9.22,0,0,1,9.22,9.19v9.24h-2.5V35.14a6.74,6.74,0,0,0-6.72-6.72,6.4,6.4,0,0,0-4.07,1.38,7,7,0,0,0-2.39,3.53V44.38h-2.49V26h2.49v2.62A8.82,8.82,0,0,1,148.4,26Z"/><path class="cls-1" d="M177.61,37V26h2.49V44.38h-2.49V41.72a9.2,9.2,0,0,1-15.68-6.54V26h2.48v9.23a6.72,6.72,0,0,0,10.79,5.36A6.87,6.87,0,0,0,177.61,37Z"/><path class="cls-1" d="M195.9,30.85a6.49,6.49,0,0,1,4.78,2,6.8,6.8,0,0,1,0,9.57,6.49,6.49,0,0,1-4.78,2H184.5V41.89h11.4a4.27,4.27,0,0,0,4.27-4.27,4.27,4.27,0,0,0-4.27-4.27v0h-7.81a3.53,3.53,0,0,1-2.6-1.08,3.72,3.72,0,0,1,0-5.22,3.53,3.53,0,0,1,2.6-1.08h12.08v2.49H188.09a1.19,1.19,0,0,0-.85.35,1.17,1.17,0,0,0-.35.85,1.2,1.2,0,0,0,1.2,1.19h7.81Z"/><path class="cls-1" d="M46.23,44.29v-20h5.49v20Zm2.71-31.35-3.7,3.69,3.7,3.7,3.69-3.7Z"/><path class="cls-1" d="M39.88,17.88a57.76,57.76,0,0,0-8.29.91c-1.44-4.18-2.75-7.66-3.85-10.38a41,41,0,0,0-2.47-5.15c-1-1.73-2-2.94-3.76-3.2a3.75,3.75,0,0,0-3.2.87c-.92.73-3.11,2.74-14.56,33.27-1.18,3.2-2.32,6.24-3,8.14A20.37,20.37,0,0,0,0,44.26v0l5.77-.06a1.83,1.83,0,0,0,.2-.44C10.36,34,18,27.61,27.29,23l.36,1C31,34.27,33.87,44.23,33.87,44.36l5.68-.07c-.09-.13-3.12-10.89-6.5-21.18-.26-.78-.51-1.55-.76-2.29,2.47-1,5-1.91,7.65-2.74C40.06,18,40,17.87,39.88,17.88Zm-27.05,9C16,18.75,20.06,8.19,21,6.34A125.5,125.5,0,0,1,26.18,19.9l.06.18A41.8,41.8,0,0,0,12.83,26.86Z"/></g></g></svg>